<?xml version="1.0" encoding="UTF-8"?>
<svg width="64px" height="63px" viewBox="0 0 64 63" version="1.1" xmlns="http://www.w3.org/2000/svg" xmlns:xlink="http://www.w3.org/1999/xlink">
    <title>Group 6</title>
    <defs>
        <path d="M30.8684,0.5604 L30.8684,3.4404 C31.2484,3.4254 31.6294,3.4114 32.0124,3.4114 C47.6474,3.4114 60.3214,16.0854 60.3214,31.7204 C60.3214,32.1034 60.3074,32.4834 60.2924,32.8634 L60.2924,32.8634 L63.1714,32.8634 C62.9874,37.9444 61.5634,42.7034 59.2174,46.8804 C58.4754,46.2694 57.7334,45.6584 56.9884,45.0504 C53.6994,51.1984 48.2094,55.9894 41.5674,58.3714 C41.8824,59.2744 42.1934,60.1784 42.4944,61.0854 C39.6594,62.1024 36.6384,62.7234 33.4944,62.8714 L33.4944,62.8714 L33.4944,59.9904 C33.0034,60.0154 32.5094,60.0284 32.0124,60.0284 C23.2804,60.0284 15.4754,56.0734 10.2824,49.8584 L10.2824,49.8584 L8.2534,51.8874 C3.6254,46.4464 0.8244,39.4064 0.8244,31.7204 C0.8244,27.0464 1.8654,22.6144 3.7164,18.6334 C4.5694,19.0674 5.4214,19.5034 6.2714,19.9414 C8.5274,15.0194 12.1514,10.8594 16.6584,7.9424 C16.1134,7.1594 15.5644,6.3774 15.0084,5.5984 C19.6044,2.5984 25.0334,0.7724 30.8684,0.5604 L30.8684,0.5604 Z M32.0124,5.1404 C17.3564,5.1404 5.4324,17.0634 5.4324,31.7204 C5.4324,46.3764 17.3564,58.3004 32.0124,58.3004 C46.6684,58.3004 58.5924,46.3764 58.5924,31.7204 C58.5924,17.0634 46.6684,5.1404 32.0124,5.1404 Z" id="path-1"></path>
    </defs>
    <g id="Page-1" stroke="none" stroke-width="1" fill="none" fill-rule="evenodd">
        <g id="spinners" transform="translate(-280.000000, -364.000000)">
            <g id="Group-6" transform="translate(280.000000, 364.000000)">
                <mask id="mask-2" fill="white">
                    <use xlink:href="#path-1"></use>
                </mask>
                <g id="Clip-5"></g>
                <polygon id="Fill-4" fill="orange" mask="url(#mask-2)" points="-4.1756 67.8714 68.1714 67.8714 68.1714 -4.4396 -4.1756 -4.4396"></polygon>
            </g>
        </g>
    </g>
</svg>